<svg width="77" height="21" viewBox="0 0 77 21" fill="none" xmlns="http://www.w3.org/2000/svg">
<path d="M0.502509 19.6372C-0.15899 18.9313 0.0231795 17.1525 0.0224329 16.207L0.0246749 11.8227L0.0224329 5.17647C0.0224329 3.99024 -0.0216103 2.78639 0.0388653 1.6022C0.0537975 1.30986 0.0970945 0.430283 0.34945 0.22904C0.828028 -0.152709 5.92217 0.0474071 6.69715 0.0939801C9.60745 0.268874 12.6036 1.05157 14.5829 3.15244C16.6921 5.39075 17.0034 8.4569 16.8033 11.2881C16.5106 13.1704 15.8327 14.8936 14.5246 16.4015C14.2865 16.6764 13.4547 17.264 13.3592 17.3877C11.7838 18.3927 11.3762 18.6437 9.57086 19.1516L7.90592 19.4952C7.65133 19.5126 7.39897 19.52 7.15408 19.5864C5.44583 19.7192 2.2018 19.7318 0.502509 19.6372ZM11.7793 2.3766L10.9297 1.96242C10.4041 1.74062 10.1472 1.63268 9.57982 1.49045C7.41465 0.747073 3.48149 1.00046 1.10652 0.917668L1.06919 1.06388C0.932555 2.47568 1.00274 4.80993 1.00348 6.2658L1.00946 14.5124C1.01021 15.8715 1.05127 17.435 1.00647 18.7775C1.28123 18.7762 1.68813 18.7634 1.95169 18.7815C2.13983 18.8312 2.5318 18.8236 2.74309 18.8337C6.93607 19.0331 12.2176 18.3712 14.5709 14.6961C15.9454 12.5502 16.044 9.21688 15.3855 6.83162C14.827 4.80841 13.725 3.45352 11.7793 2.3766Z" fill="white"/>
<path d="M4.59407 3.98258C7.78136 3.67265 11.0545 4.7158 12.0624 7.79848C12.9837 11.0197 11.9124 14.2849 8.23306 15.4221C7.85229 15.5072 7.47002 15.586 7.08626 15.6583C6.34562 15.7167 5.45267 15.7412 4.70979 15.7395C4.15879 14.621 4.68739 8.64796 4.50148 6.97623C4.43279 6.35927 4.54181 4.64599 4.59407 3.98258ZM8.69969 5.55927C7.37893 5.0417 6.89214 4.99187 5.47806 4.86213C5.46387 6.84152 5.38995 9.36681 5.47507 11.3159C5.45864 12.2072 5.42131 13.6866 5.48552 14.5634L5.47507 14.7129C5.6886 14.8647 7.03026 14.7472 7.34085 14.6876C7.57827 14.6362 7.82989 14.5843 8.06432 14.5227C12.0908 13.4653 12.4186 7.14855 8.69969 5.55927Z" fill="white"/>
<path d="M5.47501 11.3159C5.66913 11.5845 5.55564 12.419 5.66166 12.5251C5.73782 11.683 5.6654 5.29584 5.68257 5.25561C5.96106 5.20384 5.99764 5.15165 6.22983 5.24648C6.30524 5.37401 6.36945 5.56699 6.359 5.71187C6.25447 7.23963 6.34407 8.77733 6.34407 10.3018C6.34407 11.6407 6.26791 12.9598 6.31196 14.298C6.19474 14.4691 6.24552 14.4158 6.04095 14.5099C5.80128 14.3781 5.76992 14.1953 5.65867 13.9246C5.62284 14.0743 5.54445 14.4391 5.48546 14.5634C5.42125 13.6866 5.45858 12.2071 5.47501 11.3159Z" fill="black" fill-opacity="0.290196"/>
<path d="M5.47811 4.86212C6.8922 4.99186 7.37899 5.04169 8.69975 5.55926C8.51608 5.55781 8.26148 5.52401 8.1353 5.60688L8.45112 5.75397L8.46606 5.79724C7.23041 5.74464 6.57936 5.49097 6.57638 6.90482C6.57264 8.91185 6.71824 10.9272 6.54278 12.9287C6.5062 13.3359 6.62192 13.8935 6.60699 14.3114C6.60624 14.3331 6.41586 14.5236 6.39421 14.5432C6.57041 14.6843 7.07959 14.6763 7.34091 14.6876C7.03032 14.7472 5.68865 14.8647 5.47512 14.7129L5.48558 14.5634C5.54456 14.4392 5.62295 14.0743 5.65879 13.9246C5.77003 14.1953 5.8014 14.3781 6.04106 14.5099C6.24563 14.4158 6.19485 14.4691 6.31207 14.298C6.26802 12.9599 6.34418 11.6407 6.34418 10.3018C6.34418 8.77734 6.25458 7.23963 6.35911 5.71188C6.36956 5.567 6.30535 5.37402 6.22995 5.24649C5.99775 5.15166 5.96117 5.20385 5.68268 5.25562C5.66551 5.29584 5.73793 11.683 5.66178 12.5251C5.55576 12.419 5.66924 11.5845 5.47512 11.3159C5.39001 9.3668 5.46393 6.8415 5.47811 4.86212Z" fill="black" fill-opacity="0.180392"/>
<path d="M8.23322 15.422C9.44871 16.1247 11.4937 13.3091 11.7244 13.2506C11.7893 13.3288 11.8408 13.3829 11.9133 13.4552C12.0701 13.2941 12.6629 11.7948 12.6562 11.5479C12.639 10.8166 12.465 10.0033 12.645 9.25343C12.6584 9.19771 12.845 9.10122 12.9055 9.06286L13.025 9.09991L13.1721 9.51435C13.2445 11.2701 13.0623 13.3287 11.746 14.7065C11.3115 15.1619 9.58981 16.2672 8.92831 16.2551C8.36985 16.2562 8.22426 16.2986 7.96742 15.8361C7.6307 15.6558 7.51498 16.025 7.08643 15.6583C7.47018 15.586 7.85245 15.5072 8.23322 15.422Z" fill="black" fill-opacity="0.27451"/>
<path d="M12.0625 7.79843C12.1364 7.51843 12.0857 7.5299 12.285 7.35178C12.7852 7.51041 13.1892 9.03036 13.172 9.51433L13.0249 9.09989L12.9055 9.06284C12.845 9.1012 12.6583 9.19769 12.6449 9.2534C12.465 10.0033 12.6389 10.8166 12.6561 11.5478C12.6628 11.7947 12.07 13.2941 11.9132 13.4552C11.8408 13.3829 11.7893 13.3288 11.7243 13.2506C11.4936 13.3091 9.44864 16.1247 8.23315 15.422C11.9125 14.2848 12.9838 11.0196 12.0625 7.79843Z" fill="black" fill-opacity="0.121569"/>
<path d="M1.33132 1.25185C1.67849 1.22264 2.119 1.16904 2.45497 1.21163L2.49305 1.25424C2.30192 1.27075 2.10779 1.28526 1.91815 1.31141L2.17425 1.41109C2.17499 1.46881 2.18918 1.52469 2.15782 1.55821C1.78974 1.95504 1.93607 3.96945 1.95474 4.56561C1.8756 5.40369 1.93384 7.21117 1.93309 8.13731L1.9316 15.2059C1.93384 15.9398 2.02567 17.8989 1.90248 18.4759L1.78153 18.5405C1.68745 18.5294 1.59114 18.5363 1.52992 18.4729C1.24247 18.1716 1.2798 17.4876 1.28204 17.1352C1.29174 15.6947 1.29026 14.2597 1.29026 12.822L1.28877 2.3792C1.33729 1.93581 1.34476 1.69768 1.33132 1.25185Z" fill="black" fill-opacity="0.27451"/>
<path d="M1.06924 1.06388C1.3552 1.39538 1.08418 1.94916 1.28875 2.37918L1.29025 12.822C1.29025 14.2597 1.29173 15.6947 1.28203 17.1352C1.27979 17.4875 1.24246 18.1716 1.52991 18.4728C1.59113 18.5363 1.68744 18.5294 1.78152 18.5405L1.90247 18.4759C2.02566 17.8989 1.93383 15.9398 1.93159 15.2058L1.93308 8.13729C1.93383 7.21115 1.87558 5.40367 1.95473 4.56559C2.16975 5.23301 1.9495 6.84737 2.09584 7.42376L2.09061 14.7155C2.09136 15.4369 2.19887 18.3289 1.95175 18.7815C1.68819 18.7634 1.28128 18.7761 1.00653 18.7775C1.05133 17.4349 1.01027 15.8715 1.00952 14.5124L1.00354 6.2658C1.0028 4.80993 0.932614 2.47567 1.06924 1.06388Z" fill="black" fill-opacity="0.133333"/>
<path d="M1.06934 1.06389L1.10667 0.917675C3.48164 1.00047 7.4148 0.74708 9.57997 1.49046C9.31045 1.49394 7.09376 1.66833 6.94145 1.72558C6.43972 1.66801 3.32262 1.69838 2.83657 1.75539C2.58944 1.75781 2.34978 1.72898 2.17059 1.87986C1.86448 2.58528 2.30125 6.42423 2.09593 7.42377C1.94959 6.84738 2.16984 5.23302 1.95482 4.5656C1.93615 3.96944 1.78982 1.95503 2.1579 1.55819C2.18926 1.52468 2.17507 1.4688 2.17433 1.41108L1.91823 1.3114C2.10787 1.28525 2.302 1.27074 2.49313 1.25423L2.45505 1.21161C2.11908 1.16902 1.67857 1.22263 1.3314 1.25184C1.34484 1.69767 1.33737 1.9358 1.28884 2.37919C1.08427 1.94917 1.35529 1.39539 1.06934 1.06389Z" fill="black" fill-opacity="0.188235"/>
<path d="M51.5671 19.6179C50.7674 18.9092 50.9773 17.2816 50.9825 16.2918L50.9967 12.5479L50.9914 5.54722C50.9914 4.68668 50.866 1.45997 51.1997 0.656173C51.7537 0.0225719 53.5889 0.157017 54.2161 0.159063C55.2628 0.162477 56.317 0.13494 56.4708 1.23933C56.5604 2.61705 56.4716 4.08976 56.4977 5.47499C56.5074 5.98039 56.4686 6.74942 56.5276 7.23678C56.4783 7.29208 56.494 7.29132 56.485 7.37737C57.5706 7.53317 60.8841 7.48306 62.0547 7.44089C62.1929 6.23054 61.8599 1.199 62.3146 0.602474C62.4758 0.391112 62.8088 0.260088 63.0746 0.211953C63.7585 0.0883807 66.5367 0.0496323 67.0697 0.402081C67.3796 0.606863 67.4535 0.807006 67.511 1.13635L67.5207 1.36621L67.5125 12.9165C67.5132 14.2829 67.5147 15.651 67.514 17.0172C67.514 17.5889 67.5916 18.9944 67.1862 19.4283C66.471 19.84 63.6047 19.7053 62.6662 19.6508C62.6319 19.6315 62.5975 19.6113 62.5639 19.5902C61.942 19.1971 62.1264 17.9835 62.1025 17.3596C62.0495 15.9587 62.2414 14.3997 61.9607 13.0196L62.0017 12.1491C61.0953 12.1973 56.9748 12.037 56.4716 12.2035C56.55 13.0735 56.4104 16.0655 56.5179 16.5738C56.4932 17.3982 56.4843 18.223 56.491 19.0478C56.0557 19.5083 55.6197 19.6908 54.95 19.6936C53.9801 19.6976 52.4899 19.7341 51.5671 19.6179ZM63.0657 1.09574L63.0686 5.70447C63.0679 6.16501 63.0365 7.581 63.0985 7.98293C62.9275 8.27137 62.7707 8.34374 62.3944 8.36855C60.2091 8.51253 57.9305 8.30565 55.7518 8.42274C55.5719 8.25706 55.4733 8.18829 55.4584 7.93317C55.3233 5.69977 55.4681 3.44086 55.3106 1.20374L55.1941 1.15543C54.5408 1.07659 53.0894 1.12745 52.3801 1.13893L52.1502 1.10457C51.9456 1.37086 52.1771 16.9689 52.0651 18.7643C52.363 18.7697 52.7527 18.7676 53.0401 18.7945C53.2806 18.8715 55.0515 18.8168 55.3778 18.8041C55.4412 17.5998 55.1852 12.137 55.5734 11.4789C55.607 11.4216 55.7048 11.3997 55.7713 11.3814C56.2058 11.2614 62.5505 11.2341 62.7767 11.3555C62.9888 11.4692 63.0119 11.6297 63.0754 11.831V16.3207C63.0746 17.021 63.1067 18.099 63.0545 18.7763L63.8496 18.7695C64.579 18.8613 65.7236 18.8303 66.4926 18.8251C66.5277 18.2631 66.4919 17.3913 66.4911 16.799L66.4904 12.5594C66.4896 9.11014 66.5493 5.48888 66.4523 2.05286L66.4471 1.1195C65.6086 1.12147 63.8302 1.16453 63.0657 1.09574Z" fill="white"/>
<path d="M52.3799 1.13893C53.0892 1.12744 54.5406 1.07659 55.1939 1.15543L55.1536 1.17102C54.9864 1.23382 54.952 1.24104 54.7736 1.24711C54.8975 1.53212 54.9192 1.47065 54.8803 1.75394C54.5929 2.12249 53.5327 2.06973 53.0467 2.08897C52.869 3.50763 53.0041 5.85881 52.9765 7.34807C52.9078 11.0372 53.0713 14.8929 52.969 18.5725C52.8115 18.6572 52.6196 18.6038 52.4852 18.5103C52.2485 17.2699 52.3374 13.8249 52.3374 12.418C52.3187 8.74401 52.3314 5.06988 52.3755 1.39609C52.5897 1.36101 52.8443 1.33144 53.0377 1.24837L52.3799 1.13893Z" fill="black" fill-opacity="0.27451"/>
<path d="M63.0989 7.98294L63.3004 8.14654L63.3781 8.09857C63.3751 8.04984 63.3729 8.00111 63.3714 7.95238C63.3341 6.97171 63.3154 2.68531 63.4811 1.4846C63.5058 1.30946 64.3741 1.34106 64.6959 1.34599C64.2449 1.49244 63.7372 1.4944 63.5707 1.59825L63.6334 1.6884C64.0262 1.73324 64.719 1.47738 65.0416 1.81834C64.7511 1.87407 64.1732 1.92053 64.1314 2.23881C64.1105 3.20102 64.333 8.57349 63.8477 8.98752C63.6267 9.17643 63.172 9.25135 62.8831 9.28101C62.1253 9.3587 61.3406 9.26704 60.5776 9.27313C59.3718 9.2828 58.1055 9.39761 56.9057 9.30223C56.669 9.28349 56.2763 9.24845 56.1233 9.06466C56.0635 8.99271 56.0389 8.8911 56.0158 8.80436L56.0538 8.64054C56.1897 8.57232 56.2741 8.58034 56.4249 8.57612C56.1867 8.55511 55.9344 8.5596 55.7522 8.42275C57.9308 8.30566 60.2095 8.51253 62.3948 8.36856C62.7711 8.34374 62.9279 8.27137 63.0989 7.98294ZM58.7476 8.63266C59.8138 8.63722 61.5788 8.7792 62.5665 8.59375C62.471 8.49968 62.3791 8.49345 62.2395 8.48799C62.1342 8.48392 62.0252 8.49263 61.92 8.49898C61.0994 8.60826 58.7625 8.40235 58.225 8.58801C58.4019 8.6158 58.5677 8.64089 58.7476 8.63266Z" fill="black" fill-opacity="0.239216"/>
<path d="M61.9196 8.49901C62.0249 8.49263 62.1339 8.4839 62.2391 8.48799C62.3788 8.49347 62.4706 8.4997 62.5662 8.594C61.5784 8.77989 59.8134 8.63758 58.7472 8.63301C58.5673 8.64125 58.4016 8.6161 58.2246 8.58825C58.7622 8.40215 61.0991 8.60855 61.9196 8.49901Z" fill="black" fill-opacity="0.168627"/>
<path d="M63.0754 11.8311L63.2209 11.9452C63.4218 11.7239 63.3285 11.7704 63.6047 11.6945C64.0146 11.8386 64.1833 12.2248 64.1505 12.5936C64.0721 13.4638 64.4446 18.4626 63.8496 18.7695L63.0544 18.7764C63.1067 18.099 63.0746 17.021 63.0754 16.3207V11.8311ZM63.9325 18.4952C64.0333 17.9971 63.9019 17.4072 63.8974 16.8952C63.8862 15.5591 63.9728 14.19 63.872 12.8598C63.8518 12.5982 63.8294 12.2021 63.6764 11.9748C63.639 11.9197 63.5853 11.8752 63.5315 11.8344C63.2859 12.4434 63.2075 17.6594 63.5084 18.2567C63.5509 18.3402 63.6062 18.4177 63.6659 18.4913C63.7525 18.4959 63.8466 18.5082 63.9325 18.4952Z" fill="black" fill-opacity="0.211765"/>
<path d="M63.5315 11.8345C63.5853 11.8752 63.639 11.9197 63.6763 11.9748C63.8294 12.2021 63.8518 12.5982 63.872 12.8599C63.9727 14.19 63.8861 15.5591 63.8973 16.8952C63.9018 17.4073 64.0332 17.9971 63.9324 18.4952C63.8466 18.5083 63.7525 18.496 63.6659 18.4913C63.6062 18.4177 63.5509 18.3402 63.5084 18.2567C63.2075 17.6594 63.2859 12.4434 63.5315 11.8345Z" fill="black" fill-opacity="0.290196"/>
<path d="M52.0652 18.7643C52.1772 16.9688 51.9458 1.37085 52.1504 1.10456L52.3803 1.13892L53.0381 1.24836C52.8447 1.33143 52.5901 1.361 52.3758 1.39608C52.3318 5.06987 52.3191 8.744 52.3378 12.418C52.3378 13.8249 52.2489 17.2699 52.4856 18.5103C52.62 18.6038 52.8119 18.6572 52.9694 18.5725L53.0403 18.7945C52.7529 18.7676 52.3631 18.7697 52.0652 18.7643Z" fill="black" fill-opacity="0.0862745"/>
<path d="M63.0657 1.09573C63.8302 1.16451 65.6086 1.12145 66.4471 1.11949L66.4523 2.05284L66.3537 1.97456C66.3582 1.75348 66.4008 1.46157 66.2686 1.29263C66.0872 1.45354 66.0573 1.76516 65.8139 2.08595C65.3876 2.07106 64.482 2.033 64.1311 2.23879C64.1729 1.92051 64.7508 1.87406 65.0412 1.81833C65.2361 1.92834 65.7363 1.84224 65.8655 1.53681L65.7744 1.39385C65.5019 1.23375 65.0054 1.29433 64.6955 1.34597C64.3737 1.34105 63.5054 1.30944 63.4808 1.48458C63.315 2.68529 63.3337 6.97169 63.371 7.95237C63.3725 8.0011 63.3748 8.04983 63.3777 8.09856L63.3001 8.14653L63.0985 7.98292C63.0365 7.58099 63.0679 6.165 63.0686 5.70445L63.0657 1.09573Z" fill="black" fill-opacity="0.227451"/>
<path d="M19.7812 19.6516C19.6572 19.4655 19.549 19.2556 19.4668 19.0508C19.2526 18.5146 19.2787 3.27374 19.3578 1.79767C19.3825 1.34825 19.4325 0.84838 19.6371 0.43505C20.2702 0.0931076 22.4757 0.174434 23.3112 0.173791L27.6087 0.173743C29.4065 0.174697 31.2193 0.14633 33.0141 0.20531C33.7525 0.229592 34.0922 0.492164 34.2266 1.13183C34.2214 1.62984 34.2348 2.12789 34.2669 2.62503C34.2423 2.96753 34.2169 3.97538 34.1609 4.24515C34.0086 4.52322 33.8436 4.74503 33.486 4.79977C31.3701 5.12353 28.6091 4.85299 26.4641 4.94582C25.8967 4.93345 25.33 4.92826 24.7633 4.93027C24.7827 5.64953 24.8074 6.89859 24.7506 7.62401L25.7884 7.61675C27.419 7.7102 30.5809 7.53228 31.9144 7.72444C32.3131 7.97721 32.4475 8.00389 32.5453 8.42656C32.5669 9.33444 32.7901 11.1737 32.2817 12.0049C32.2571 12.0446 31.9054 12.2506 31.8322 12.2921C30.8534 12.4642 29.0653 12.4099 28.0148 12.4032C27.0726 12.3971 25.704 12.4306 24.7842 12.3777L24.7685 14.8333L24.7529 14.9346C24.9515 15.0106 25.2598 14.9925 25.4838 14.9937C27.0315 15.1367 33.1993 14.8439 33.9646 15.3379C34.143 15.5463 34.1632 15.7146 34.2251 15.9703L34.2214 16.0217C34.2348 16.7418 34.4006 19.0458 33.9198 19.4235C33.4472 19.7947 30.1479 19.6842 29.4349 19.6839L22.5608 19.6779C21.756 19.6766 20.545 19.6288 19.7812 19.6516ZM31.2409 8.56023C28.8779 8.53494 26.4753 8.59728 24.125 8.54793C23.6815 8.20136 23.7763 7.22871 23.8047 6.71238C23.8398 6.08512 23.6464 4.55944 23.9943 4.07339C24.6394 3.85538 31.9741 3.96549 33.1687 3.95623L33.1463 2.55518C33.1649 2.11552 33.1493 1.55456 33.15 1.106C32.1242 1.18074 30.0874 1.12365 28.9974 1.12317L20.8249 1.13161L20.3643 1.1043C20.2112 2.2557 20.2881 18.4523 20.3747 18.6991L20.4531 18.7572L21.3282 18.7896C21.6679 18.8603 24.2459 18.8372 24.7738 18.837L33.1761 18.8278L33.1448 17.0748L33.1478 16.0411C31.0468 16.1119 28.804 16.0106 26.6926 16.049C26.1647 16.0586 24.5408 16.0045 24.1272 16.0915C23.6897 15.3327 23.7957 14.5325 23.7987 13.6932C23.8002 13.1306 23.6777 12.0354 24.0033 11.601C24.5199 11.3742 30.3943 11.484 31.5426 11.4371C31.5567 10.7637 31.5328 10.1561 31.5022 9.48236C31.5134 9.16089 31.5306 8.93894 31.4716 8.61982L31.3186 8.5556L31.2409 8.56023Z" fill="white"/>
<path d="M32.4582 1.70386C32.7531 1.56011 32.6956 1.55336 32.8919 1.26454C32.9569 1.81263 32.7359 2.01759 32.1857 2.09253C30.6402 2.30293 22.3117 1.79317 21.4658 2.23936C21.3613 2.52134 21.3351 2.83713 21.3344 3.13414C21.3195 7.87567 21.3321 12.6176 21.3187 17.3592C21.318 17.8345 21.3 18.3148 21.3277 18.7896L20.4526 18.7572C20.8394 18.5977 20.4721 18.4022 20.8006 18.0559C20.8095 18.2515 20.7946 18.3557 20.9275 18.5031C21.2366 17.9904 20.7968 4.75975 20.9797 3.11624C21.0014 2.91904 20.985 2.69663 21.0626 2.44414C21.3329 2.23068 21.1664 2.13789 21.6943 1.86061C22.1027 1.86316 23.5518 1.8303 23.9565 1.81932C25.4146 1.77969 31.4099 2.01519 32.4582 1.70386Z" fill="black" fill-opacity="0.172549"/>
<path d="M20.608 1.56824L20.626 1.65056L20.7155 1.67153L20.7305 1.82611C20.7715 1.6306 20.732 1.63715 20.8649 1.55018L21.003 1.6047L21.0993 1.95021L21.1852 1.98539C21.336 1.8155 21.4054 1.6712 21.6451 1.66286C23.5676 1.59597 25.5536 1.71448 27.4545 1.72221C28.5408 1.72548 29.6271 1.72244 30.7127 1.71305C31.1577 1.70674 32.0984 1.62865 32.4583 1.70387C31.41 2.01521 25.4147 1.77971 23.9566 1.81933C23.5519 1.83032 22.1028 1.86318 21.6944 1.86063C21.1665 2.13791 21.333 2.23069 21.0627 2.44415C20.9851 2.69665 21.0015 2.91905 20.9798 3.11626C20.7969 4.75976 21.2367 17.9904 20.9276 18.5031C20.7947 18.3557 20.8096 18.2515 20.8007 18.0559C20.496 17.6365 20.6192 14.2299 20.62 13.4467L20.6289 5.95685C20.6304 4.54224 20.6655 2.96946 20.608 1.56824Z" fill="black" fill-opacity="0.290196"/>
<path d="M24.1245 8.54793C26.4748 8.5973 28.8774 8.53493 31.2405 8.56024C30.5051 8.7746 30.8806 8.6325 30.2572 8.97091L30.2908 9.09115L30.2318 9.09143C30.5394 9.14267 30.7679 9.12836 31.077 9.12165C31.0269 9.28428 31.0187 9.30662 30.9075 9.44277C30.1079 9.67483 26.5002 9.32211 25.4811 9.48765C24.8189 9.59517 24.5799 9.48336 24.1813 9.03017C24.2514 8.91739 24.3134 8.81982 24.3716 8.70089L24.1245 8.54793Z" fill="black" fill-opacity="0.266667"/>
<path d="M20.4529 18.7572L20.3745 18.6992C20.2879 18.4523 20.211 2.25571 20.3641 1.10431L20.8247 1.13162C20.7673 1.31176 20.7456 1.43203 20.6082 1.56823C20.6657 2.96945 20.6306 4.54224 20.6291 5.95684L20.6202 13.4467C20.6194 14.2299 20.4962 17.6365 20.8009 18.0559C20.4724 18.4022 20.8397 18.5977 20.4529 18.7572Z" fill="black" fill-opacity="0.141176"/>
<path d="M31.3183 8.55558L31.4713 8.61982C31.5303 8.93908 31.5131 9.16111 31.5019 9.48271C31.4213 9.39054 31.4108 9.37892 31.2929 9.33246C31.2697 9.35002 30.9345 9.59798 30.8815 9.59612C28.8171 9.52358 26.5399 9.71615 24.5218 9.51583C24.377 9.50145 24.2284 9.13601 24.1814 9.03014C24.5801 9.48334 24.819 9.59515 25.4812 9.48762C26.5004 9.32208 30.108 9.6748 30.9076 9.44275C31.0189 9.30659 31.0271 9.28426 31.0771 9.12163C31.1047 8.70501 31.0301 8.79919 31.3183 8.55558Z" fill="black" fill-opacity="0.0941176"/>
<path d="M31.318 8.55558C31.0298 8.79919 31.1045 8.70501 31.0769 9.12163C30.7678 9.12833 30.5393 9.14265 30.2317 9.09141L30.2907 9.09113L30.2571 8.97088C30.8805 8.63248 30.505 8.77457 31.2404 8.56022L31.318 8.55558Z" fill="black" fill-opacity="0.239216"/>
<path d="M36.4533 19.0732C36.3802 18.4115 36.4108 17.2361 36.4115 16.5409L36.419 12.1814C36.4235 8.72626 36.3981 5.27027 36.4227 1.8158C36.5243 1.12048 36.2958 0.437184 37.2283 0.254639C38.1392 0.075494 39.1262 0.179298 40.0565 0.182485C40.8068 0.185063 41.5482 0.227011 41.7707 0.998423L41.767 1.17954C41.8439 2.38638 41.805 3.82795 41.8043 5.04999L41.7991 11.587C41.7983 12.2335 41.7065 14.3509 41.8155 14.8408C41.9514 14.8963 41.8946 14.8926 42.0298 14.8643C43.0959 14.9484 44.0845 14.9513 45.1514 14.9504C46.4154 14.9493 47.498 14.8204 48.6761 15.3066L48.8426 16.3427C48.8277 17.1086 48.8628 18.2818 48.7866 19.0067C48.5044 19.3348 48.4253 19.3963 48.0542 19.6384C47.1777 19.7073 46.1899 19.6979 45.3074 19.6823C42.5151 19.633 39.6608 19.7533 36.8759 19.6442L36.4533 19.0732ZM47.6943 17.0669L47.6839 15.8865C46.7708 15.9377 45.4679 15.8997 44.5272 15.9094C43.5051 15.9201 41.9835 15.9564 41.0099 15.8652C40.7755 15.7173 40.7292 15.4082 40.724 15.1565C40.6269 10.9147 40.7538 6.66055 40.6859 2.4181L40.6948 1.0846C40.0931 1.15964 38.3848 1.12275 37.7024 1.12352L37.5411 1.07148L37.4232 1.13756C37.3493 1.51974 37.3948 4.51348 37.3948 5.13812L37.3933 14.9279C37.3948 15.3287 37.3687 18.6311 37.4575 18.7559C37.6688 18.7842 37.7271 18.7776 37.9398 18.755C38.5998 18.8771 40.6015 18.8388 41.3967 18.8386L47.7361 18.8243C47.7548 18.3075 47.7115 17.5981 47.6943 17.0669Z" fill="white"/>
<path d="M37.9398 18.755C37.727 18.7776 37.6687 18.7842 37.4575 18.7559C37.3686 18.6311 37.3947 15.3287 37.3932 14.9279L37.3947 5.13809C37.3947 4.51345 37.3492 1.51971 37.4231 1.13753L37.5411 1.07145C37.503 1.15282 37.3664 18.1417 37.4888 18.6917L37.6075 18.7201C37.774 18.5487 37.7636 18.5289 37.7494 18.2589C37.6695 16.6759 37.7188 15.0644 37.7188 13.4736L37.7218 5.23769C37.7247 4.13067 37.7247 3.02783 37.6934 1.92104C37.6852 1.61979 37.7695 1.39752 37.7023 1.12349C38.3847 1.12272 40.093 1.15961 40.6948 1.08458L40.6858 2.41807C40.6074 2.05854 40.5843 1.83763 40.5551 1.47079L40.5581 1.60163L40.5268 1.3365C40.3356 1.49256 40.3118 1.74844 39.9168 2.06579C39.4666 2.06454 38.6797 1.99002 38.3721 2.24797C38.1667 2.86718 38.2459 6.45931 38.2474 7.39928L38.2548 15.566C38.2556 16.4321 38.2981 17.5222 38.2309 18.3815C38.225 18.4524 38.0226 18.645 37.9532 18.7038L37.9398 18.755ZM38.7386 1.73183C39.1306 1.7204 39.6786 1.73051 40.0206 1.53515C39.9646 1.44242 39.9541 1.44641 39.8466 1.41778C39.4882 1.3224 39.0365 1.37025 38.6632 1.37562C38.4057 1.41305 38.1526 1.45025 37.9002 1.51265C37.8576 1.74828 37.877 1.95609 37.9047 2.19112C37.9681 1.99752 37.9808 1.88058 38.1533 1.74599C38.3482 1.73667 38.543 1.73195 38.7386 1.73183Z" fill="black" fill-opacity="0.286275"/>
<path d="M37.5414 1.07145L37.7026 1.12349C37.7698 1.39752 37.6855 1.61979 37.6937 1.92104C37.725 3.02783 37.725 4.13067 37.7221 5.23769L37.7191 13.4736C37.7191 15.0644 37.6698 16.6758 37.7497 18.2589C37.7639 18.5289 37.7743 18.5487 37.6078 18.7201L37.4891 18.6917C37.3667 18.1417 37.5033 1.15282 37.5414 1.07145Z" fill="black" fill-opacity="0.0980392"/>
<path d="M16.8034 11.288C16.8744 11.783 16.9095 11.9541 16.7997 12.4444C17.076 12.1334 16.9819 11.1781 17.1476 10.8809C17.2029 11.8863 17.1753 12.2833 17.0595 13.2872L17.0961 13.2982C17.5418 12.1974 17.5702 10.8949 17.55 9.7329C17.5478 9.57392 17.5284 9.21961 17.665 9.12796C17.9039 9.36338 17.8218 10.1322 17.8188 10.4784C17.7957 13.198 16.9027 15.9714 14.6711 17.8302C13.0226 19.2031 11.2792 19.7596 9.17231 20.2151C8.22262 20.4239 7.78959 20.6038 6.78614 20.5684C6.75179 20.5673 6.71745 20.5656 6.68311 20.5631C6.99892 20.4693 7.83588 20.4571 8.07479 20.191C7.87769 19.9971 7.61861 20.1682 7.22962 19.9956L7.28935 19.9376C7.57755 19.8062 7.7963 19.8506 8.11361 19.8787L8.32715 19.701C8.33013 19.6615 8.29056 19.6101 8.26667 19.5678L7.90606 19.4952L9.571 19.1516L9.72555 19.231C10.5214 19.1213 10.6685 19.1633 11.439 18.8199C11.8519 18.6359 13.3384 17.838 13.4668 17.4948L13.3593 17.3877C13.4549 17.264 14.2866 16.6763 14.5248 16.4015C15.8328 14.8935 16.5108 13.1704 16.8034 11.288Z" fill="black" fill-opacity="0.278431"/>
<path d="M56.4716 12.2035C56.9749 12.037 61.0954 12.1973 62.0018 12.1491L61.9607 13.0196C61.7801 12.7331 62.004 12.5395 61.8144 12.2796C61.6106 12.2696 61.5852 12.2712 61.4038 12.3561C61.3298 12.6564 61.3896 12.5903 61.1902 12.7925C60.3645 13.0967 57.5878 12.6765 57.4415 13.4004C57.0585 15.2863 57.5744 17.925 57.2212 19.8572C57.2078 19.9329 56.7225 20.4091 56.6142 20.5267C55.675 20.6275 53.0619 20.6501 52.1316 20.5426C51.9061 20.1095 51.9061 19.8636 51.5671 19.6179C52.49 19.7342 53.9802 19.6976 54.95 19.6936C55.6198 19.6908 56.0558 19.5083 56.4911 19.0478C56.4843 18.2231 56.4933 17.3983 56.5179 16.5738C56.7337 17.0839 56.4687 18.9785 56.7419 19.1384C57.0129 18.8525 56.727 13.1191 56.8427 12.2697C56.7083 12.2566 56.6016 12.2316 56.4716 12.2035Z" fill="black" fill-opacity="0.278431"/>
<path d="M67.6855 19.0176C67.9737 18.5697 67.7587 5.66765 67.8252 4.10485C67.8505 3.50234 67.7871 1.72571 67.8647 1.02776C67.8692 0.988682 68.017 0.938729 68.0715 0.915325C68.2127 1.21734 68.2985 1.4791 68.3209 1.80842C68.4359 3.47794 68.4546 19.3461 68.2463 19.8257C68.1985 19.9361 68.1387 20.0479 68.0723 20.1496C68.0559 19.6375 68.2627 19.2176 67.6855 19.0176Z" fill="black" fill-opacity="0.25098"/>
<path d="M34.2666 2.62505C34.3353 3.04461 34.327 3.92259 34.3091 4.36392C34.386 4.23729 34.3972 4.21503 34.5294 4.12718L34.6944 4.20321C34.8541 4.43877 34.8392 4.3447 34.7967 4.59284C34.9863 4.43739 35.0849 2.36963 35.1453 1.94297C35.1901 3.19047 35.5291 4.73412 34.4383 5.6219C33.5931 5.78606 32.3216 5.71839 31.4153 5.71196L27.8532 5.7065C27.7143 5.70622 27.123 5.71037 27.017 5.6962C24.8592 5.4077 26.1068 7.18968 25.4155 7.43201L25.1512 7.38777L24.9921 7.17371L24.8943 7.19161L24.9264 7.42758C25.2184 7.47078 25.5282 7.49512 25.788 7.61677L24.7502 7.62402C24.807 6.89861 24.7823 5.64955 24.7629 4.93029C25.3296 4.92828 25.8963 4.93346 26.4637 4.94584C27.2895 5.26849 31.2092 4.92213 32.3732 5.01074C33.125 5.0679 33.9052 5.56045 34.4338 4.9627C34.5518 4.51432 34.3345 4.68484 34.1605 4.24517C34.2165 3.97539 34.2419 2.96755 34.2666 2.62505ZM25.5409 7.29895C25.517 6.96815 25.6738 5.38807 25.5439 5.24672C25.3826 5.20753 25.2467 5.22059 25.0825 5.23766C25.1452 5.82815 24.9279 6.70639 25.2303 7.22278C25.3617 7.29916 25.3796 7.31755 25.5409 7.29895Z" fill="black" fill-opacity="0.235294"/>
<path d="M25.0826 5.23762C25.2468 5.22055 25.3827 5.20749 25.544 5.24668C25.6739 5.38803 25.5171 6.96811 25.541 7.29892C25.3797 7.31751 25.3618 7.29912 25.2304 7.22275C24.928 6.70635 25.1453 5.82812 25.0826 5.23762Z" fill="black" fill-opacity="0.27451"/>
<path d="M42.6953 14.6208C42.5056 14.6071 42.4355 14.6104 42.2675 14.5248C42.2794 14.0665 42.0532 14.0207 42.0569 13.506L42.0838 2.16643C42.0861 1.83375 42.048 1.0623 42.2734 0.856392C42.9252 1.71077 42.7438 2.36108 42.7438 3.37851L42.7401 6.43582C42.7349 8.97418 42.8386 12.1281 42.6953 14.6208Z" fill="black" fill-opacity="0.270588"/>
<path d="M33.37 9.11093C33.5425 9.65359 33.6261 12.0181 33.2849 12.5685C33.1752 12.8084 32.8041 13.0871 32.5204 13.1147C30.8995 13.2724 29.124 13.1567 27.4785 13.1485C24.6362 13.1343 26.1548 13.6113 25.4761 14.7697C25.4843 14.4354 25.491 14.1147 25.5172 13.7813C25.5396 13.5063 25.6926 12.9769 25.665 12.7369L25.5896 12.6907L25.6769 12.7175C25.4963 12.6685 25.4731 12.7085 25.2603 12.7605C24.6354 13.3168 25.5089 14.2957 25.2312 14.8117C25.0513 14.8808 24.9609 14.8567 24.7683 14.8333L24.784 12.3777C25.7038 12.4306 27.0724 12.3972 28.0146 12.4032C29.0651 12.4099 30.8532 12.4642 31.832 12.2921L31.9104 12.397L31.8671 12.5921C32.0724 12.7742 32.1321 12.7853 32.4674 12.7793C32.551 12.7773 32.6354 12.7743 32.7197 12.77C32.7668 12.8073 32.7825 12.7987 32.8526 12.8103C33.3372 12.401 33.3155 9.8747 33.37 9.11093Z" fill="black" fill-opacity="0.168627"/>
<path d="M67.5207 1.36622C67.6962 1.82905 67.6103 4.13877 67.6066 4.76638L67.6126 14.4454C67.6126 15.2299 67.5581 18.4027 67.6857 19.0176C68.2629 19.2175 68.0561 19.6375 68.0725 20.1496C67.9426 20.2313 67.7305 20.4313 67.6088 20.5388C66.4523 20.6476 64.9277 20.604 63.7496 20.6056C63.3912 20.6061 63.171 20.5063 62.9403 20.2586C62.8626 20.0607 62.8761 20.0153 62.9156 19.8049L62.6663 19.6508C63.6048 19.7053 66.471 19.84 67.1863 19.4283C67.5917 18.9944 67.514 17.5889 67.514 17.0172C67.5148 15.651 67.5133 14.2829 67.5125 12.9165L67.5207 1.36622Z" fill="black" fill-opacity="0.290196"/>
<path d="M42.1664 0.713936L42.2732 0.856385C42.0477 1.06229 42.0858 1.83375 42.0835 2.16642L42.0567 13.506C42.0529 14.0207 42.2792 14.0665 42.2672 14.5248C42.4352 14.6103 42.5054 14.6071 42.695 14.6208C42.4001 14.7313 42.1933 14.7081 42.0298 14.8643C41.8946 14.8926 41.9514 14.8963 41.8155 14.8408C41.7065 14.3509 41.7983 12.2335 41.7991 11.587L41.8043 5.04996C41.8051 3.82792 41.8439 2.38635 41.767 1.17951C41.8932 1.34237 41.8304 1.40654 42.0089 1.65086C42.0029 1.59939 41.9992 1.54771 41.9984 1.49596C41.9932 1.24674 41.982 0.892113 42.1664 0.713936Z" fill="black" fill-opacity="0.152941"/>
<path d="M67.5112 1.13637C67.6322 0.936302 67.6591 0.872532 67.8636 0.749664L67.9906 0.781176L68.0719 0.915317C68.0174 0.938721 67.8696 0.988674 67.8651 1.02775C67.7875 1.72571 67.8509 3.50233 67.8256 4.10485C67.7591 5.66765 67.9741 18.5697 67.6859 19.0176C67.5583 18.4027 67.6128 15.2299 67.6128 14.4454L67.6068 4.76639C67.6105 4.13878 67.6964 1.82906 67.5209 1.36623L67.5112 1.13637Z" fill="black" fill-opacity="0.054902"/>
<path d="M56.9684 7.19278C56.6742 6.62592 56.7257 1.76334 56.94 1.11594L57.0796 1.14139C57.3282 1.60018 57.3745 6.81414 57.1505 7.20515L56.9684 7.19278Z" fill="black" fill-opacity="0.258824"/>
<path d="M56.4709 1.23935L56.6509 1.47697C56.8973 1.20564 56.7039 1.00753 56.9309 0.82391C57.511 1.22521 57.5535 6.76478 57.3594 7.09068L57.1504 7.20514C57.3743 6.81413 57.3281 1.60018 57.0794 1.14139L56.9398 1.11594C56.7255 1.76334 56.674 6.62592 56.9682 7.19277C56.851 7.21883 56.8353 7.20791 56.7151 7.17805L56.6471 6.96668C56.615 7.05384 56.5673 7.15089 56.5277 7.2368C56.4687 6.74944 56.5075 5.98041 56.4978 5.47501C56.4717 4.08977 56.5605 2.61707 56.4709 1.23935Z" fill="black" fill-opacity="0.12549"/>
<path d="M34.2262 1.13181C34.4196 0.864838 34.3389 0.885463 34.5988 0.828861C35.0505 1.04197 35.1415 1.50796 35.1453 1.94294C35.0848 2.36959 34.9862 4.43735 34.7966 4.5928C34.8392 4.34466 34.8541 4.43874 34.6943 4.20317L34.5293 4.12714C34.3972 4.21499 34.386 4.23725 34.3091 4.36388C34.327 3.92255 34.3352 3.04457 34.2665 2.62501C34.2344 2.12787 34.221 1.62982 34.2262 1.13181Z" fill="black" fill-opacity="0.211765"/>
<path d="M32.6423 8.44944C32.7618 8.23606 32.6983 8.27 32.9007 8.19528C33.2142 8.3161 33.3456 8.82835 33.3703 9.11091C33.3158 9.87469 33.3374 12.401 32.8529 12.8103C32.7827 12.7987 32.767 12.8073 32.72 12.77C32.7573 12.5 32.7879 12.2503 32.7596 11.9777C32.6386 10.8057 32.6528 9.62565 32.6423 8.44944Z" fill="black" fill-opacity="0.211765"/>
<path d="M56.4717 12.2035C56.6016 12.2316 56.7084 12.2566 56.8427 12.2697C56.727 13.1191 57.013 18.8525 56.742 19.1384C56.4687 18.9785 56.7337 17.0839 56.518 16.5738C56.4105 16.0655 56.5501 13.0736 56.4717 12.2035Z" fill="black" fill-opacity="0.152941"/>
<path d="M26.4639 4.9461C28.6089 4.85323 31.3699 5.12388 33.4858 4.79999C33.8434 4.74523 34.0084 4.52333 34.1607 4.24515C34.3347 4.685 34.5519 4.51441 34.434 4.96297C33.9054 5.56096 33.1251 5.06821 32.3733 5.01103C31.2093 4.92238 27.2896 5.26888 26.4639 4.9461Z" fill="black" fill-opacity="0.313725"/>
<path d="M32.5448 8.42654L32.6419 8.44942C32.6523 9.62563 32.6381 10.8057 32.7591 11.9776C32.7875 12.2503 32.7568 12.5 32.7195 12.77C32.6351 12.7742 32.5508 12.7773 32.4672 12.7792C32.1319 12.7853 32.0722 12.7742 31.8669 12.5921L31.9102 12.3969L31.8318 12.2921C31.905 12.2506 32.2566 12.0446 32.2812 12.0049C32.7897 11.1736 32.5665 9.33443 32.5448 8.42654Z" fill="black" fill-opacity="0.356863"/>
<path d="M24.7684 14.8333C24.961 14.8567 25.0513 14.8808 25.2313 14.8117C25.509 14.2957 24.6355 13.3168 25.2604 12.7605C25.4732 12.7085 25.4963 12.6685 25.677 12.7175L25.5896 12.6907L25.665 12.7369C25.6927 12.9769 25.5396 13.5063 25.5172 13.7813C25.4911 14.1147 25.4844 14.4354 25.4761 14.7697L25.4836 14.9937C25.2596 14.9925 24.9513 15.0106 24.7527 14.9346L24.7684 14.8333Z" fill="black" fill-opacity="0.254902"/>
<path d="M71.5147 19.654C70.6023 19.381 70.771 18.4645 70.7681 17.733L70.7658 7.19828C70.7666 5.30198 70.7449 3.36302 70.7994 1.46779C70.8069 1.21557 70.8315 0.72125 71.0264 0.571136C71.8379 -0.0317279 73.0714 0.218783 73.9919 0.163404C76.7477 -0.00247654 76.2265 1.42924 76.228 3.36717L76.2318 7.86356C76.234 11.2913 76.3594 15.4824 76.2131 18.8557C76.1041 19.1143 75.9092 19.4507 75.6151 19.5282C74.4757 19.8281 72.6831 19.7033 71.5147 19.654ZM75.1783 18.8233L75.1328 8.00864C75.1335 6.13065 75.1947 3.99132 75.1074 2.14548C75.123 1.85264 75.2067 1.30139 74.9842 1.0994C74.2174 1.17651 72.922 1.09889 72.0119 1.15881L71.882 1.13746C71.8253 1.23872 71.6998 17.5314 71.8499 18.6554L71.9432 18.7572C72.1411 18.7681 72.3165 18.7716 72.5151 18.7723C73.1893 18.8663 74.4936 18.8328 75.1783 18.8233Z" fill="white"/>
<path d="M74.9839 1.09941C75.2064 1.3014 75.1228 1.85265 75.1071 2.14549C75.0257 1.85374 74.9959 1.69043 74.9556 1.39158C74.5613 2.45599 73.867 2.04323 72.9106 2.16032C72.7687 3.11578 72.8314 5.50603 72.8322 6.54967L72.8397 14.7892C72.8404 15.9201 72.868 17.1531 72.7919 18.2826C72.7799 18.4606 72.6358 18.6364 72.5149 18.7723C72.3163 18.7716 72.1408 18.7681 71.943 18.7572L71.8496 18.6555C71.6996 17.5314 71.825 1.23873 71.8818 1.13747L72.0117 1.15882C72.2454 1.18781 72.4096 1.20605 72.6396 1.26538C72.4641 1.30787 72.32 1.34046 72.1408 1.37027C72.0609 1.76988 72.0893 2.82375 72.0901 3.27504L72.0923 6.63461L72.096 13.7986C72.096 14.4939 71.9654 18.2037 72.3573 18.5402C72.8568 18.364 72.5545 17.511 72.5582 17.0794L72.6007 7.9866C72.5978 6.31742 72.5171 3.79116 72.6702 2.21343C72.8262 2.07327 72.9957 1.91032 73.1726 1.79766C73.6117 1.93292 74.5165 1.86312 74.7159 1.37732C74.7726 1.26131 74.8816 1.18476 74.9839 1.09941Z" fill="black" fill-opacity="0.14902"/>
<path d="M72.6702 2.21344C72.5172 3.79117 72.5978 6.31743 72.6008 7.98661L72.5582 17.0794C72.5545 17.511 72.8569 18.3641 72.3574 18.5402C71.9654 18.2037 72.0961 14.4939 72.0961 13.7986L72.0924 6.63462L72.0901 3.27505C72.0894 2.82376 72.061 1.76989 72.1409 1.37028L72.2723 1.42686L72.2529 1.60213L72.3708 1.69605C72.7255 1.66887 72.8957 1.61127 73.1727 1.79767C72.9958 1.91033 72.8263 2.07328 72.6702 2.21344Z" fill="black" fill-opacity="0.282353"/>
</svg>
