<svg width="42" height="42" viewBox="0 0 42 42" fill="none" xmlns="http://www.w3.org/2000/svg">
<g filter="url(#filter0_d_45_138)">
<rect x="4" width="34" height="34" rx="17" fill="white"/>
<path d="M21.8039 23C15.654 23 12.1462 18.8709 12 12H15.0806C15.1818 17.043 17.4528 19.1792 19.2517 19.6196V12H22.1524V16.3493C23.9288 16.1622 25.7951 14.1802 26.4247 12H29.3254C29.0882 13.1307 28.6152 14.2013 27.9362 15.1448C27.2572 16.0883 26.3867 16.8845 25.3791 17.4835C26.5038 18.0308 27.4972 18.8055 28.2937 19.7564C29.0902 20.7073 29.6718 21.8128 30 23H26.807C26.5124 21.9688 25.9135 21.0458 25.0855 20.3465C24.2575 19.6472 23.2372 19.2029 22.1524 19.0691V23H21.8039Z" fill="#006FFF"/>
</g>
<defs>
<filter id="filter0_d_45_138" x="0" y="0" width="42" height="42" filterUnits="userSpaceOnUse" color-interpolation-filters="sRGB">
<feFlood flood-opacity="0" result="BackgroundImageFix"/>
<feColorMatrix in="SourceAlpha" type="matrix" values="0 0 0 0 0 0 0 0 0 0 0 0 0 0 0 0 0 0 127 0" result="hardAlpha"/>
<feOffset dy="4"/>
<feGaussianBlur stdDeviation="2"/>
<feComposite in2="hardAlpha" operator="out"/>
<feColorMatrix type="matrix" values="0 0 0 0 0 0 0 0 0 0 0 0 0 0 0 0 0 0 0.25 0"/>
<feBlend mode="normal" in2="BackgroundImageFix" result="effect1_dropShadow_45_138"/>
<feBlend mode="normal" in="SourceGraphic" in2="effect1_dropShadow_45_138" result="shape"/>
</filter>
</defs>
</svg>
